<?xml version="1.0" encoding="utf-8"?>
<!-- Generator: Adobe Illustrator 22.1.0, SVG Export Plug-In . SVG Version: 6.00 Build 0)  -->
<svg version="1.1" id="Layer_1" xmlns="http://www.w3.org/2000/svg" xmlns:xlink="http://www.w3.org/1999/xlink" x="0px" y="0px"
	 viewBox="0 0 330 190" style="enable-background:new 0 0 330 190;" xml:space="preserve">
<style type="text/css">
	.st0{fill:#FCFCFC;}
	.st1{fill:none;}
	.st2{font-family:'MyriadPro-Regular';}
	.st3{font-size:12px;}
	.st4{letter-spacing:1;}
	.st5{letter-spacing:2;}
</style>
<rect y="14" class="st0" width="330" height="161"/>
<rect x="22" y="29" class="st1" width="286" height="159"/>
<text transform="matrix(1 0 0 1 22 37.52)"><tspan x="0" y="0" class="st2 st3">In</tspan><tspan x="10.1" y="0" class="st2 st3"> </tspan><tspan x="12.6" y="0" class="st2 st3">turns,</tspan><tspan x="42.8" y="0" class="st2 st3"> </tspan><tspan x="45.2" y="0" class="st2 st3">a</tspan><tspan x="51.3" y="0" class="st2 st3"> </tspan><tspan x="53.7" y="0" class="st2 st3">player</tspan><tspan x="86.5" y="0" class="st2 st3"> </tspan><tspan x="89" y="0" class="st2 st3">repeatedly</tspan><tspan x="145.8" y="0" class="st2 st3"> </tspan><tspan x="148.2" y="0" class="st2 st3">rolls</tspan><tspan x="170.6" y="0" class="st2 st3"> </tspan><tspan x="173.1" y="0" class="st2 st3">two</tspan><tspan x="193.4" y="0" class="st2 st3"> </tspan><tspan x="195.8" y="0" class="st2 st3">dies</tspan><tspan x="217.3" y="0" class="st2 st3"> </tspan><tspan x="219.8" y="0" class="st2 st3">until</tspan><tspan x="244.2" y="0" class="st2 st3"> </tspan><tspan x="246.6" y="0" class="st2 st3">either</tspan><tspan x="277.8" y="0" class="st2 st3"> </tspan><tspan x="280.2" y="0" class="st2 st3">a </tspan><tspan x="0" y="18" class="st2 st3">1</tspan><tspan x="6.5" y="18" class="st2 st3"> </tspan><tspan x="9.6" y="18" class="st2 st3">is</tspan><tspan x="17.8" y="18" class="st2 st3"> </tspan><tspan x="20.9" y="18" class="st2 st3">rolled</tspan><tspan x="51.7" y="18" class="st2 st3"> </tspan><tspan x="54.9" y="18" class="st2 st3">or</tspan><tspan x="66" y="18" class="st2 st3"> </tspan><tspan x="69.1" y="18" class="st2 st3">the</tspan><tspan x="86.7" y="18" class="st2 st3"> </tspan><tspan x="89.9" y="18" class="st2 st3">player</tspan><tspan x="122.7" y="18" class="st2 st3"> </tspan><tspan x="125.9" y="18" class="st2 st3">decides</tspan><tspan x="166.4" y="18" class="st2 st3"> </tspan><tspan x="169.6" y="18" class="st2 st3">to</tspan><tspan x="180.8" y="18" class="st2 st3"> </tspan><tspan x="183.9" y="18" class="st2 st3">&quot;hold&quot;.</tspan><tspan x="219.5" y="18" class="st2 st3"> </tspan><tspan x="222.6" y="18" class="st2 st3">If</tspan><tspan x="229.6" y="18" class="st2 st3"> </tspan><tspan x="232.8" y="18" class="st2 st3">the</tspan><tspan x="250.3" y="18" class="st2 st3"> </tspan><tspan x="253.5" y="18" class="st2 st3">player </tspan><tspan x="0" y="36" class="st2 st3">rolls</tspan><tspan x="22.4" y="36" class="st2 st3 st4"> </tspan><tspan x="26.3" y="36" class="st2 st3">a</tspan><tspan x="32.4" y="36" class="st2 st3 st4"> </tspan><tspan x="36.2" y="36" class="st2 st3">1,</tspan><tspan x="45.5" y="36" class="st2 st3 st4"> </tspan><tspan x="49.3" y="36" class="st2 st3">they</tspan><tspan x="72.8" y="36" class="st2 st3 st4"> </tspan><tspan x="76.7" y="36" class="st2 st3">score</tspan><tspan x="104.9" y="36" class="st2 st3 st4"> </tspan><tspan x="108.7" y="36" class="st2 st3">nothing</tspan><tspan x="150.9" y="36" class="st2 st3 st4"> </tspan><tspan x="154.7" y="36" class="st2 st3">and</tspan><tspan x="174.8" y="36" class="st2 st3 st4"> </tspan><tspan x="178.7" y="36" class="st2 st3">it</tspan><tspan x="186.1" y="36" class="st2 st3 st4"> </tspan><tspan x="190" y="36" class="st2 st3">becomes</tspan><tspan x="237.6" y="36" class="st2 st3 st4"> </tspan><tspan x="241.5" y="36" class="st2 st3">the</tspan><tspan x="259" y="36" class="st2 st3 st4"> </tspan><tspan x="262.9" y="36" class="st2 st3">next </tspan><tspan x="0" y="54" class="st2 st3">player&apos;s</tspan><tspan x="40.4" y="54" class="st2 st3"> </tspan><tspan x="43.8" y="54" class="st2 st3">turn.</tspan><tspan x="68.9" y="54" class="st2 st3"> </tspan><tspan x="72.2" y="54" class="st2 st3">If</tspan><tspan x="79.2" y="54" class="st2 st3"> </tspan><tspan x="82.5" y="54" class="st2 st3">the</tspan><tspan x="100" y="54" class="st2 st3"> </tspan><tspan x="103.4" y="54" class="st2 st3">player</tspan><tspan x="136.2" y="54" class="st2 st3"> </tspan><tspan x="139.5" y="54" class="st2 st3">rolls</tspan><tspan x="161.9" y="54" class="st2 st3"> </tspan><tspan x="165.2" y="54" class="st2 st3">any</tspan><tspan x="184.2" y="54" class="st2 st3"> </tspan><tspan x="187.5" y="54" class="st2 st3">other</tspan><tspan x="216.2" y="54" class="st2 st3"> </tspan><tspan x="219.5" y="54" class="st2 st3">number,</tspan><tspan x="264.1" y="54" class="st2 st3"> </tspan><tspan x="267.4" y="54" class="st2 st3">it</tspan><tspan x="274.8" y="54" class="st2 st3"> </tspan><tspan x="278.1" y="54" class="st2 st3">is </tspan><tspan x="0" y="72" class="st2 st3">added</tspan><tspan x="33.6" y="72" class="st2 st3"> </tspan><tspan x="37.1" y="72" class="st2 st3">to</tspan><tspan x="48.2" y="72" class="st2 st3"> </tspan><tspan x="51.7" y="72" class="st2 st3">their</tspan><tspan x="76.6" y="72" class="st2 st3"> </tspan><tspan x="80.1" y="72" class="st2 st3">turn</tspan><tspan x="102.4" y="72" class="st2 st3"> </tspan><tspan x="105.9" y="72" class="st2 st3">total</tspan><tspan x="130.6" y="72" class="st2 st3"> </tspan><tspan x="134.1" y="72" class="st2 st3">and</tspan><tspan x="154.2" y="72" class="st2 st3"> </tspan><tspan x="157.7" y="72" class="st2 st3">the</tspan><tspan x="175.2" y="72" class="st2 st3"> </tspan><tspan x="178.7" y="72" class="st2 st3">player&apos;s</tspan><tspan x="219.1" y="72" class="st2 st3"> </tspan><tspan x="222.6" y="72" class="st2 st3">turn</tspan><tspan x="245" y="72" class="st2 st3"> </tspan><tspan x="248.5" y="72" class="st2 st3">contin</tspan><tspan x="282.3" y="72" class="st2 st3">-</tspan><tspan x="0" y="90" class="st2 st3">ues.</tspan><tspan x="21.1" y="90" class="st2 st3 st5"> </tspan><tspan x="26" y="90" class="st2 st3">If</tspan><tspan x="33" y="90" class="st2 st3 st5"> </tspan><tspan x="38" y="90" class="st2 st3">a</tspan><tspan x="44.1" y="90" class="st2 st3 st5"> </tspan><tspan x="49.1" y="90" class="st2 st3">player</tspan><tspan x="81.9" y="90" class="st2 st3 st5"> </tspan><tspan x="86.9" y="90" class="st2 st3">chooses</tspan><tspan x="129.7" y="90" class="st2 st3 st5"> </tspan><tspan x="134.7" y="90" class="st2 st3">to</tspan><tspan x="145.8" y="90" class="st2 st3 st5"> </tspan><tspan x="150.8" y="90" class="st2 st3">&quot;hold&quot;,</tspan><tspan x="186.3" y="90" class="st2 st3 st5"> </tspan><tspan x="191.3" y="90" class="st2 st3">their</tspan><tspan x="216.2" y="90" class="st2 st3 st5"> </tspan><tspan x="221.2" y="90" class="st2 st3">turn</tspan><tspan x="243.5" y="90" class="st2 st3 st5"> </tspan><tspan x="248.5" y="90" class="st2 st3">total</tspan><tspan x="273.2" y="90" class="st2 st3 st5"> </tspan><tspan x="278.1" y="90" class="st2 st3">is </tspan><tspan x="0" y="108" class="st2 st3">added</tspan><tspan x="33.6" y="108" class="st2 st3"> </tspan><tspan x="36.8" y="108" class="st2 st3">to</tspan><tspan x="48" y="108" class="st2 st3"> </tspan><tspan x="51.2" y="108" class="st2 st3">their</tspan><tspan x="76.1" y="108" class="st2 st3"> </tspan><tspan x="79.4" y="108" class="st2 st3">score,</tspan><tspan x="110.3" y="108" class="st2 st3"> </tspan><tspan x="113.5" y="108" class="st2 st3">and</tspan><tspan x="133.7" y="108" class="st2 st3"> </tspan><tspan x="136.9" y="108" class="st2 st3">it</tspan><tspan x="144.3" y="108" class="st2 st3"> </tspan><tspan x="147.5" y="108" class="st2 st3">becomes</tspan><tspan x="195.2" y="108" class="st2 st3"> </tspan><tspan x="198.4" y="108" class="st2 st3">the</tspan><tspan x="216" y="108" class="st2 st3"> </tspan><tspan x="219.2" y="108" class="st2 st3">next</tspan><tspan x="242.6" y="108" class="st2 st3"> </tspan><tspan x="245.9" y="108" class="st2 st3">player&apos;s </tspan><tspan x="0" y="126" class="st2 st3">turn.</tspan><tspan x="25.2" y="126" class="st2 st3"> </tspan><tspan x="28.2" y="126" class="st2 st3">The</tspan><tspan x="47.8" y="126" class="st2 st3"> </tspan><tspan x="50.8" y="126" class="st2 st3">first</tspan><tspan x="70.9" y="126" class="st2 st3"> </tspan><tspan x="74" y="126" class="st2 st3">player</tspan><tspan x="106.8" y="126" class="st2 st3"> </tspan><tspan x="109.9" y="126" class="st2 st3">to</tspan><tspan x="121.1" y="126" class="st2 st3"> </tspan><tspan x="124.1" y="126" class="st2 st3">score</tspan><tspan x="152.3" y="126" class="st2 st3"> </tspan><tspan x="155.4" y="126" class="st2 st3">100</tspan><tspan x="174.7" y="126" class="st2 st3"> </tspan><tspan x="177.8" y="126" class="st2 st3">or</tspan><tspan x="188.9" y="126" class="st2 st3"> </tspan><tspan x="192" y="126" class="st2 st3">more</tspan><tspan x="219.7" y="126" class="st2 st3"> </tspan><tspan x="222.8" y="126" class="st2 st3">points</tspan><tspan x="256.2" y="126" class="st2 st3"> </tspan><tspan x="259.3" y="126" class="st2 st3">wins.</tspan></text>
</svg>
